<?xml version="1.0" encoding="UTF-8"?>
<svg xmlns="http://www.w3.org/2000/svg" viewBox="0 0 1000 1000">
  <!-- Outer silhouette -->
  <path d="M505,78C532.519,109.348 558.021,149.004 581.443,179.389C606.931,157.255 636.984,129.487 668.538,111.328C706.355,119.071 697.4,188.595 710.657,222.294C721.109,246.596 805.637,164.664 805.168,219.875C805.979,262.026 804.452,304.291 798,346C843.362,344.979 889.391,342.149 934.375,348.338C962.808,374.636 911.226,422.289 900.946,454.649C886.243,479.259 856.036,505.766 902.294,516.478C932.161,538.033 992.607,574.606 935.309,604.355C890.119,640.748 837.005,676.295 777,678C793.972,723.699 813.151,775.244 798,824C728.953,829.98 657.181,812.671 600,773C588.806,832.452 550.635,882.927 511.003,926.869C475.292,932.876 455.832,880.759 434.509,856.269C413.148,836.05 406.618,784.738 393.153,776.993C338.052,814.227 269.708,827.893 204,825C189.372,788.271 205.422,745.445 212.65,707.772C233.695,672.204 162.236,665.921 131.831,650.64C98.369,633.824 50.171,597.573 38.531,568.937C60.082,540.669 106.325,516.849 123.903,494.187C96.786,450.436 66.656,405.741 53,356C95.567,339.204 146.547,346.922 192.298,345.486C211.841,332.277 187.352,278.192 194.916,248.013C188.786,217.877 197.199,182.554 233.708,207.376C259.317,214.101 299.473,251.01 293.089,201.833C301.987,165.686 305.844,75.32 357.063,130.125C381.557,135.937 413.421,198.646 429.71,165.189C454.328,137.845 470.936,91.204 505,78Z" fill="#f571ab"/>
  <!-- Center petal (light pink) -->
  <path d="M499,99C510.1,106.327 517.17,122.216 526.491,132.657C574.91,199.881 621.656,270.473 646.444,350.221C669.483,427.007 646.238,514.787 591.694,572.815C559.338,607.125 507.459,624.218 462.151,607.508C402.894,586.366 367.151,526.835 352.891,468.325C341.38,422.452 343.042,373.376 360.324,329.131C373.312,294.043 399.877,240.248 428.377,195.212C461.186,143.368 495.601,102.193 499,99Z" fill="#f8b7d3"/>
  <!-- Bottom center petal -->
  <path d="M443,618C455.713,620.525 467.473,626.82 480.52,628.188C505.315,632.016 531.12,628.183 554,618C565.65,624.77 567.765,640.442 573.819,651.755C587.79,686.068 594.26,724.163 586.552,760.809C579.675,797.344 563.856,831.898 541.652,861.637C531.127,878.056 517.489,892.113 505,907C500.695,912.734 494.262,906.818 489.832,900.909C453.464,860.906 423.23,812.872 413.579,758.957C406.872,723.385 411.673,686.227 425.663,652.949C430.423,640.832 436.107,629.054 443,618Z" fill="#fcdce9"/>
  <!-- Right upper petal -->
  <path d="M783,219C792.545,218.579 787.981,231.214 788.895,237.279C788.043,313.518 779.244,391.152 749.9,462.121C737,493.879 716.911,522.481 691.76,545.725C664.008,569.344 630.682,588.585 594,593C650.077,540.288 676.48,459.83 668.694,383.902C664.966,351.278 654.172,319.922 641,290C649.637,273.258 668.854,266.206 684.721,258.027C716.209,243.517 749.808,233.867 781.597,220.403Z" fill="#f594c1"/>
  <!-- Left upper petal -->
  <path d="M212,220C230.795,223.325 247.852,232.728 265.558,239.51C297.645,253.676 329.704,268.625 359,288C353.238,306.902 343.191,324.324 338.858,343.759C320.24,413.122 333.095,489.715 370.701,550.558C380.759,565.688 391.749,580.536 406,592C382.516,595.694 361.042,581.298 341.684,569.992C328.587,562.404 317.139,552.684 306.363,543.782C265.575,508.721 245.13,456.892 231.191,406.354C215.489,346.359 210.463,284.019 211.992,222.156Z" fill="#f594c1"/>
  <!-- Bottom left petal -->
  <path d="M342.5,587.75C367.992,600.721 395.835,608.506 424,613C428.647,618.87 417.276,627.325 416.745,634.329C400.102,671.715 392.782,713.182 396,754C347.775,790.981 286.46,806.195 226.592,808.634C218.229,810.621 213.644,808.249 215.802,799.134C215.943,739.651 231.546,678.326 268.603,630.876C283.442,611.739 302.858,596.575 323.731,584.533Z" fill="#f9b8d4"/>
  <!-- Bottom right petal -->
  <path d="M674,583C695.307,595.845 715.631,611.233 731.403,630.619C759.347,666.832 773.779,711.601 781.059,756.277C783.682,773.706 784.822,791.385 784,809C723.143,807.776 660.409,794.479 610.169,758.527C597.793,752.139 608.033,735.094 604.569,723.784C603.081,685.422 591.351,648.046 574,614C581.893,610.929 591.127,610.874 599.446,608.463C622.972,603.417 645.52,594.569 666.694,583.227Z" fill="#f9b8d4"/>
  <!-- Right side petal -->
  <path d="M758,484C793.208,482.173 827.582,493.874 858.393,510.015C892.787,529.268 907.723,542.201 923.314,554.127C940.216,570.138 934.045,580.231 931.172,585.094C901.95,611.54 868.782,634.163 831.774,648.2C812.114,656.079 791.257,661.475 770,662C750.698,625.526 722.521,593.377 687,572C704.04,557.625 727.081,530.807 735.236,521.889C743.76,509.837 750.422,496.634 758,484Z" fill="#f594c1"/>
  <!-- Left side petal -->
  <path d="M236.188,483.938C244.675,481.837 246.275,492.428 249.916,497.97C264.518,526.718 286.566,551.591 313,570C292.961,585.45 283.551,593.086 273.6,600.476 266,610C242.887,638.934 236.667,650.617 230,662C179.6,660.73 133.059,636.083 93.985,605.84C82.54,596.329 70.438,587.457 60.082,576.752C53.854,569.167 70.346,562.084 75.088,555.64C99.281,535.669 124.77,516.796 153.68,504.176C179.307,491.743 207.548,483.718 236.188,483.938Z" fill="#f594c1"/>
  <!-- Highlight streak -->
  <path d="M512.731,153.854C512.731,153.854 593.998,281.562 601.953,301.712C609.908,321.862 633.974,382.551 630.34,437.513C626.256,499.287 583.459,564.136 546.465,584.079C515.512,600.765 582.25,480.476 582.138,431.872C582.017,379.261 558.463,295.035 545.796,255.292C533.129,215.549 512.731,153.854 512.731,153.854Z" fill="#fcdce9"/>
</svg>
