<?xml version="1.0" encoding="UTF-8" standalone="no"?>
<!DOCTYPE svg PUBLIC "-//W3C//DTD SVG 1.1//EN" "http://www.w3.org/Graphics/SVG/1.1/DTD/svg11.dtd">
<svg width="100%" height="100%" viewBox="0 0 400 400" version="1.1" xmlns="http://www.w3.org/2000/svg" xmlns:xlink="http://www.w3.org/1999/xlink" xml:space="preserve" xmlns:serif="http://www.serif.com/" style="fill-rule:evenodd;clip-rule:evenodd;stroke-linejoin:round;stroke-miterlimit:2;">
    <g id="path77" transform="matrix(0.153846,0,0,0.153846,4.91325,100.451)">
        <path d="M1242.74,1292.58C1198.32,1287.89 1157.73,1266.18 1133.38,1234.09C1111.31,1205.03 1103.46,1177.7 1100.51,1119.76C1099.62,1102.14 1099.14,1099.74 1096.68,1100.45C1095.13,1100.89 1089.03,1102.5 1083.13,1103.99C1066.84,1108.11 1062.69,1110.35 1037.97,1128.37C1035.07,1130.49 1032.36,1131.9 1031.96,1131.49C1030.87,1130.41 1039.86,1115.34 1046.56,1107.03C1054.35,1097.37 1061.14,1093.44 1081.7,1086.7C1100.88,1080.4 1093.48,1080.8 1070.8,1087.27C1054.63,1091.89 1040.25,1099.16 1014.28,1115.84C997.07,1126.89 992.245,1128.93 992.245,1125.19C992.245,1122.21 1015.84,1098.63 1028.46,1089C1034.76,1084.19 1039.66,1079.99 1039.34,1079.67C1038,1078.34 1016.22,1086.88 999.156,1095.44C975.044,1107.53 947.996,1125.77 931.952,1140.75C920.673,1151.29 918.592,1152.59 915.797,1150.85C909.652,1147.01 905.366,1138.44 904.516,1128.28C903.472,1115.86 897.165,1102.24 882.351,1080.41C870.086,1062.35 846.757,1032.9 845.609,1034.05C844.432,1035.23 852.367,1055.38 860.315,1071.4C868.972,1088.83 873.899,1108.56 871.126,1114.64C869.678,1117.83 867.997,1118.54 861.942,1118.54C850.405,1118.54 838.851,1114.35 807.466,1098.78C778.975,1084.65 760.864,1077.75 758.571,1080.15C757.936,1080.82 760.493,1083.74 764.249,1086.65C779.871,1098.77 793.59,1114.65 801.105,1129.32C805.218,1137.36 808.047,1144.48 807.384,1145.14C805.209,1147.31 780.114,1137.16 748.879,1121.46C720.763,1107.33 693.544,1095.88 656.235,1082.45C645.131,1078.46 639.893,1077.49 631.468,1077.9L620.79,1078.4L631.891,1083.85C648.428,1091.95 671.766,1112.23 685.397,1130.33C691.812,1138.84 700.58,1148.91 704.874,1152.69C717.877,1164.13 711.935,1162.19 691.948,1148.47C676.925,1138.15 671.343,1133.13 664.597,1123.85C655.206,1110.94 646.021,1102.81 631.877,1094.9C622.233,1089.51 607.983,1083.85 607.983,1085.41C607.983,1086.72 621.255,1106.09 630.142,1117.74C638.929,1129.26 643.005,1137.73 641.571,1141.46C639.961,1145.66 632.234,1149.74 627.939,1148.66C625.745,1148.11 620.277,1144.84 615.773,1141.41C611.271,1137.97 595.185,1128.25 580.031,1119.81C564.88,1111.37 550.44,1103.02 547.946,1101.25C539.362,1095.17 541.179,1098.09 555.976,1114.12C569.511,1128.78 590.89,1156.84 590.902,1159.95C590.902,1164.15 584.002,1158.32 560.276,1134.11C545.525,1119.05 529.26,1104.16 523.735,1100.66C513.292,1094.04 461.112,1068.57 461.112,1070.1C461.112,1071.15 473.094,1086.86 488.197,1105.61C502.43,1123.28 505.5,1128.5 505.508,1135.07C505.508,1146.39 495.023,1149.1 480.685,1141.47C476.138,1139.05 462.002,1129.93 449.26,1121.2C436.524,1112.46 421.486,1103 415.851,1100.17C406.295,1095.37 384.551,1087.8 380.319,1087.8C379.287,1087.8 385.033,1094.14 393.089,1101.89C407.486,1115.74 407.835,1116.27 413.926,1133.61C420.494,1152.31 421.237,1156.11 418.286,1156.11C412.503,1156.11 386.974,1145.67 365.519,1134.52C333.578,1117.92 320.213,1113.41 302.919,1113.41C288.539,1113.41 288.238,1114.6 301.428,1119.33C306.125,1121.01 314.195,1124.74 319.36,1127.61C330.364,1133.72 366.86,1157.79 376.223,1165.12C387.984,1174.31 381.325,1172.06 363.322,1160.76C329.119,1139.29 317.341,1134.37 272.398,1122.83C255.487,1118.49 240.117,1114.5 238.238,1113.96C235.154,1113.09 235.227,1113.43 238.989,1117.5C241.279,1119.98 246.662,1124.1 250.946,1126.65C257.763,1130.73 258.248,1131.38 254.823,1131.88C252.675,1132.22 247.065,1131.62 242.359,1130.62C233.203,1128.66 198.754,1128.45 181.885,1130.23L171.635,1131.33L189.539,1137.06C209.429,1143.44 252.266,1154.42 270.689,1157.86C286.024,1160.72 289.729,1163.75 275.868,1162.09C256.89,1159.83 197.365,1149.59 176.757,1145.05C147.183,1138.53 131.91,1133.17 105.883,1120.19C80.09,1107.32 58.876,1099.98 43.56,1098.62C34.294,1097.79 28.358,1098.62 3.838,1104.36C1.729,1104.85 0,1104.56 0,1103.65C0,1102.77 7.877,1099.52 17.504,1096.42C30.328,1092.3 39.362,1090.57 51.29,1089.93C66.467,1089.12 68.618,1089.44 82.885,1094.56C122.119,1108.64 131.556,1111.66 144.091,1114.21C162.133,1117.86 193.98,1119.98 211.66,1118.71L226.069,1117.67L204.579,1107C184.643,1097.1 160.999,1081.62 162.907,1079.71C163.344,1079.28 168.052,1080.87 173.333,1083.29C189.711,1090.78 204.778,1092.9 242.011,1092.93C280.962,1092.93 310.671,1095.09 325.338,1098.92C330.973,1100.38 344.228,1105.33 354.796,1109.9C365.366,1114.47 374,1117.7 373.992,1117.09C373.992,1114.45 360.533,1099.44 352.661,1093.24C347.967,1089.54 331.444,1078.59 315.947,1068.92C284.102,1049.04 275.462,1042.92 278.042,1042.06C279.026,1041.72 282.906,1043.04 286.668,1044.96C296.572,1050.01 321.684,1056.13 350.101,1060.41C387.159,1066 394.271,1068.91 447.398,1100.31C460.99,1108.35 472.473,1114.56 472.915,1114.12C473.349,1113.68 459.544,1098.92 442.222,1081.34C398.265,1036.69 356.037,989.362 326.404,951.503L320.658,944.167L335.957,945.323C361.913,947.285 371.645,941.984 382.535,919.947C386.359,912.22 389.948,903.013 390.509,899.49C391.425,893.781 391.144,893.089 387.91,893.089C385.914,893.089 375.25,897.698 364.204,903.339C331.637,919.962 322.299,920.055 301.133,903.951C277.461,885.949 251.745,850.64 239.085,818.77C226.664,787.504 222.403,757.644 220.201,686.438C218.483,630.788 216.85,612.21 209.778,567.743C204.163,532.449 204.157,479.409 209.778,454.371C227.095,377.025 278.283,314.779 356.094,276.449C384.579,262.414 403.662,256 438.069,248.885C462.078,243.921 466.098,243.578 502.109,243.437C571.068,243.147 612.734,253.242 678.002,285.948C718.118,306.051 748.681,314.495 782.195,314.731C799.903,314.872 805.484,314.243 814.941,311.114C831.932,305.495 835.869,302.57 857.812,279.286C880.328,255.396 897.146,241.211 924.797,222.8C992.676,177.608 1080.71,147.841 1164.35,141.803C1188.79,140.037 1219.09,141.576 1243.48,145.845C1251.3,147.212 1258.03,147.983 1258.46,147.555C1258.89,147.121 1258.17,143.518 1256.85,139.518C1252.26,125.532 1238.12,107.127 1212.15,81.306C1198.12,67.374 1187.09,55.542 1187.63,55.009C1188.89,53.745 1214.25,68.4 1226.23,77.312C1231.39,81.156 1242.73,91.168 1251.42,99.561C1263.12,110.866 1267.22,113.95 1267.22,111.455C1267.22,106.353 1274.58,85.808 1280.85,73.38C1291.11,53.073 1327.89,2.375 1333.96,0.181C1337.1,-0.961 1335.38,3.288 1328.48,13.683C1324.6,19.522 1319.14,29.375 1316.35,35.583C1313.56,41.788 1307.2,55.315 1302.21,65.65C1292.62,85.527 1282.59,114.602 1282.59,122.502C1282.59,127.877 1287.44,135.831 1289.41,133.676C1290.12,132.897 1291.66,129.178 1292.82,125.422C1302.06,95.511 1337.79,53.708 1375.47,28.726C1386.63,21.322 1396.43,15.267 1397.24,15.267C1400.7,15.267 1398.06,18.578 1387.97,26.932C1376.05,36.797 1366.66,47.103 1346.51,72.479C1323.07,101.976 1310.74,122.638 1307.39,138.025L1306.13,143.793L1311.86,142.815C1348.5,136.576 1360.26,135.68 1405.55,135.686C1442.19,135.686 1456.83,136.358 1472.15,138.745C1547.88,150.523 1609.12,177.109 1661.22,220.825C1677.08,234.122 1697.62,257.012 1706.91,271.723L1711.94,279.692L1738.49,286.62C1778.34,297.017 1795.72,299.313 1827.23,298.335C1849.35,297.652 1856.34,296.768 1868.56,293.091C1892.71,285.831 1908.97,278.787 1932.47,265.397C1966.37,246.081 1984.39,239.791 2028.76,231.795C2047.73,228.382 2055.67,227.937 2096.36,228.005C2137.53,228.061 2144.39,228.498 2160.41,231.931C2212.95,243.184 2254.18,264.214 2286.14,296.05C2303.68,313.532 2314.08,328.612 2326.08,353.974C2368.05,442.709 2371.81,590.973 2335.39,721.449C2321.98,769.484 2306.95,807.786 2284.78,850.365C2263.14,891.952 2241.84,924.1 2224.3,941.635C2212.18,953.762 2211.14,953.986 2205.8,945.547C2198.43,933.894 2176.36,920.412 2164.65,920.412C2162.52,920.412 2159.05,921.815 2156.93,923.53L2153.08,926.651L2157.17,930.472C2159.42,932.573 2165.27,936.595 2170.18,939.404C2180.22,945.159 2191.06,956.806 2191.33,962.133C2192,975.3 2189.01,983.404 2176.43,1002.54C2167.2,1016.57 2138.76,1046.79 2118.8,1063.78C2111.69,1069.84 2106.08,1075.01 2106.34,1075.27C2106.58,1075.52 2110.69,1074.27 2115.44,1072.47C2130.1,1066.9 2149.89,1062.5 2177.48,1058.69C2208.43,1054.42 2220.84,1051.74 2237.41,1045.77C2244.07,1043.37 2249.88,1041.76 2250.32,1042.21C2251.26,1043.15 2210.17,1068.51 2190.29,1079.25C2182.78,1083.31 2172.02,1089.89 2166.38,1093.87C2153.32,1103.09 2135.08,1120.4 2137.46,1121.31C2138.46,1121.7 2149.73,1116.98 2162.51,1110.84C2199.33,1093.14 2201.63,1092.73 2274.83,1091.34L2337.16,1090.17L2352.11,1084.91C2360.33,1082.01 2367.05,1080.31 2367.05,1081.11C2367.05,1083.73 2350.26,1095.93 2340.17,1100.64C2306.85,1116.21 2307.64,1115.73 2313.26,1116.98C2321.38,1118.78 2354.51,1118.65 2371.32,1116.75C2393.44,1114.25 2418.49,1107.85 2442.56,1098.55C2463.22,1090.57 2463.85,1090.44 2483.19,1090.44C2500.83,1090.44 2504.51,1091 2519.48,1096.02C2528.63,1099.09 2536.13,1102.38 2536.13,1103.34C2536.13,1104.3 2534.78,1104.67 2533.14,1104.16C2499.48,1093.79 2479.86,1096.67 2435.06,1118.55C2405.3,1133.08 2391.63,1137.73 2359.98,1144.1C2332.2,1149.69 2249.24,1161.8 2247.9,1160.46C2246.6,1159.16 2249.48,1158.42 2274.83,1153.5C2287.51,1151.04 2312.78,1145.24 2330.97,1140.6C2349.17,1135.97 2364.5,1132.17 2365.04,1132.17C2365.59,1132.17 2365.09,1131.25 2363.97,1130.12C2362.49,1128.64 2350.5,1128.04 2320.94,1127.99C2298.4,1127.99 2279.95,1127.73 2279.95,1127.55C2279.95,1127.35 2283.41,1124.83 2287.64,1121.92C2291.87,1119.01 2295.32,1116.07 2295.32,1115.38C2295.32,1113.8 2233.45,1129.09 2221.02,1133.73C2207.97,1138.62 2182.89,1151.41 2169.33,1160.1C2154.12,1169.84 2150.16,1171.88 2150.16,1169.98C2150.16,1167.63 2196.53,1137.69 2213.35,1129.18C2221.33,1125.14 2234.4,1119.56 2242.38,1116.79L2256.9,1111.74L2234.62,1111.74C2220.21,1111.74 2208.76,1112.62 2202.18,1114.3C2196.58,1115.73 2177.01,1124.1 2158.7,1132.91C2140.38,1141.73 2122.78,1149.79 2119.59,1150.82C2102.67,1156.29 2095.45,1150.73 2095.61,1132.4C2095.7,1118.21 2098.53,1109.86 2104.05,1107.21C2106.4,1106.09 2114.08,1102.46 2121.13,1099.13C2128.17,1095.82 2136.62,1090.71 2139.91,1087.78L2145.89,1082.46L2134.4,1083.47C2108.12,1085.76 2086.99,1097.06 2052.78,1127.13C2030.4,1146.8 2022.45,1152.69 2018.29,1152.69C2015.07,1152.69 2015.07,1152.61 2018.38,1148C2026.45,1136.7 2043.71,1119.75 2057.94,1109.16C2066.4,1102.86 2073.33,1097.47 2073.33,1097.19C2073.33,1096.51 2010.24,1125.2 1996.95,1131.94C1984.16,1138.42 1980.54,1138.62 1975.05,1133.13C1970.1,1128.18 1969.42,1118.9 1973.56,1112.59C1976.34,1108.35 1987.68,1100.43 1999.27,1094.64L2005.87,1091.35L1997.58,1091.29C1987.65,1091.21 1971.14,1095.27 1961.57,1100.13C1948.54,1106.76 1929.99,1122.17 1912.78,1140.68C1897.69,1156.91 1888.88,1163.88 1888.88,1159.59C1888.88,1156.51 1915.02,1123.54 1923.91,1115.42C1929.22,1110.57 1932.81,1106.6 1931.9,1106.6C1923.81,1106.6 1876.77,1121.5 1858.31,1129.91C1851.35,1133.08 1845.35,1135.36 1844.96,1134.97C1843.84,1133.85 1847.94,1120.01 1851.34,1113.43C1853.05,1110.14 1857.57,1104.41 1861.41,1100.7C1865.25,1096.99 1868.39,1093.32 1868.39,1092.56C1868.39,1090.37 1851.34,1099.47 1841.83,1106.73C1837.08,1110.36 1829.44,1118.82 1824.84,1125.55C1818.64,1134.62 1813.58,1139.7 1805.29,1145.16C1799.13,1149.22 1791.21,1154.96 1787.69,1157.91C1780.48,1163.96 1778.87,1162.38 1785.74,1155.99C1788.19,1153.71 1796.22,1143.79 1803.57,1133.92C1811.28,1123.61 1821.05,1112.82 1826.59,1108.52C1841.12,1097.26 1852.93,1089.6 1857.61,1088.43C1860.16,1087.79 1861.19,1086.76 1860.24,1085.8C1859.28,1084.85 1854.59,1084.89 1848.26,1085.89C1840.74,1087.1 1825.4,1093.46 1792.92,1108.83C1753.27,1127.59 1727.27,1139.02 1724.21,1139.02C1721.11,1139.02 1724.31,1130.88 1731.78,1119.67C1740.31,1106.92 1754.73,1092.26 1764.3,1086.61C1767.07,1084.97 1769.33,1082.92 1769.33,1082.06C1769.33,1078.06 1751.32,1083.68 1726.81,1095.33C1712.15,1102.29 1697.09,1108.82 1693.34,1109.84C1684.93,1112.1 1672.53,1112.25 1671.21,1110.13C1670.67,1109.26 1672.44,1102.91 1675.14,1096.04C1677.85,1089.16 1681.06,1079.31 1682.26,1074.15C1684.78,1063.39 1668.05,1068.06 1661.83,1078.63C1658.59,1084.14 1649.84,1098.57 1642.38,1110.66L1628.84,1132.67L1620.44,1116.35C1611.12,1098.26 1601.57,1086.34 1591.03,1079.67C1584.87,1075.78 1554.25,1064.96 1552.98,1066.22C1552.69,1066.52 1559.02,1070.01 1566.99,1074.06C1575.31,1078.28 1583.99,1084.19 1587.4,1087.96C1594.08,1095.35 1602.81,1111.48 1601.06,1113.17C1600.43,1113.78 1595.95,1109.98 1591.13,1104.72C1581.58,1094.33 1575.02,1089.18 1561.85,1081.74C1555.08,1077.92 1553.92,1077.62 1556.25,1080.31C1559.14,1083.64 1571.24,1108.52 1571.24,1111.12C1571.24,1111.85 1567.59,1108.9 1563.13,1104.57C1554.49,1096.19 1546.69,1091.73 1532.64,1087.14C1527.84,1085.57 1520.23,1081.94 1515.71,1079.08L1507.51,1073.88L1515.04,1082.75C1528.85,1099.02 1542.18,1115.97 1542.2,1117.27C1542.2,1120.51 1536.88,1117.57 1524.28,1107.4C1507,1093.46 1494.14,1086.6 1479.48,1083.49C1459.72,1079.31 1453.73,1080.68 1471.76,1085.27C1487.37,1089.24 1495.82,1093.53 1501.67,1100.47C1506.73,1106.47 1515.32,1122.1 1514.18,1123.24C1513.59,1123.83 1509.86,1121.16 1505.88,1117.31C1501.91,1113.45 1495.48,1108.67 1491.59,1106.67C1483.27,1102.39 1458.53,1094.51 1458.53,1096.14C1458.53,1098.99 1468.92,1112.21 1482.13,1126.17C1503.63,1148.89 1509.81,1165.55 1504.06,1185.3C1493.52,1221.43 1453.45,1239.15 1416.35,1224.08L1405.76,1219.78L1399.64,1229C1376.2,1264.29 1334,1287.57 1284.19,1292.68C1265.08,1294.64 1262.15,1294.63 1242.79,1292.6L1242.74,1292.58" style="fill:white;fill-rule:nonzero;stroke:white;stroke-width:13px;"/>
    </g>
    <g id="path771" serif:id="path77" transform="matrix(0.153846,0,0,0.153846,4.91325,100.451)">
        <path d="M1242.74,1292.58C1198.32,1287.89 1157.73,1266.18 1133.38,1234.09C1111.31,1205.03 1103.46,1177.7 1100.51,1119.76C1099.62,1102.14 1099.14,1099.74 1096.68,1100.45C1095.13,1100.89 1089.03,1102.5 1083.13,1103.99C1066.84,1108.11 1062.69,1110.35 1037.97,1128.37C1035.07,1130.49 1032.36,1131.9 1031.96,1131.49C1030.87,1130.41 1039.86,1115.34 1046.56,1107.03C1054.35,1097.37 1061.14,1093.44 1081.7,1086.7C1100.88,1080.4 1093.48,1080.8 1070.8,1087.27C1054.63,1091.89 1040.25,1099.16 1014.28,1115.84C997.07,1126.89 992.245,1128.93 992.245,1125.19C992.245,1122.21 1015.84,1098.63 1028.46,1089C1034.76,1084.19 1039.66,1079.99 1039.34,1079.67C1038,1078.34 1016.22,1086.88 999.156,1095.44C975.044,1107.53 947.996,1125.77 931.952,1140.75C920.673,1151.29 918.592,1152.59 915.797,1150.85C909.652,1147.01 905.366,1138.44 904.516,1128.28C903.472,1115.86 897.165,1102.24 882.351,1080.41C870.086,1062.35 846.757,1032.9 845.609,1034.05C844.432,1035.23 852.367,1055.38 860.315,1071.4C868.972,1088.83 873.899,1108.56 871.126,1114.64C869.678,1117.83 867.997,1118.54 861.942,1118.54C850.405,1118.54 838.851,1114.35 807.466,1098.78C778.975,1084.65 760.864,1077.75 758.571,1080.15C757.936,1080.82 760.493,1083.74 764.249,1086.65C779.871,1098.77 793.59,1114.65 801.105,1129.32C805.218,1137.36 808.047,1144.48 807.384,1145.14C805.209,1147.31 780.114,1137.16 748.879,1121.46C720.763,1107.33 693.544,1095.88 656.235,1082.45C645.131,1078.46 639.893,1077.49 631.468,1077.9L620.79,1078.4L631.891,1083.85C648.428,1091.95 671.766,1112.23 685.397,1130.33C691.812,1138.84 700.58,1148.91 704.874,1152.69C717.877,1164.13 711.935,1162.19 691.948,1148.47C676.925,1138.15 671.343,1133.13 664.597,1123.85C655.206,1110.94 646.021,1102.81 631.877,1094.9C622.233,1089.51 607.983,1083.85 607.983,1085.41C607.983,1086.72 621.255,1106.09 630.142,1117.74C638.929,1129.26 643.005,1137.73 641.571,1141.46C639.961,1145.66 632.234,1149.74 627.939,1148.66C625.745,1148.11 620.277,1144.84 615.773,1141.41C611.271,1137.97 595.185,1128.25 580.031,1119.81C564.88,1111.37 550.44,1103.02 547.946,1101.25C539.362,1095.17 541.179,1098.09 555.976,1114.12C569.511,1128.78 590.89,1156.84 590.902,1159.95C590.902,1164.15 584.002,1158.32 560.276,1134.11C545.525,1119.05 529.26,1104.16 523.735,1100.66C513.292,1094.04 461.112,1068.57 461.112,1070.1C461.112,1071.15 473.094,1086.86 488.197,1105.61C502.43,1123.28 505.5,1128.5 505.508,1135.07C505.508,1146.39 495.023,1149.1 480.685,1141.47C476.138,1139.05 462.002,1129.93 449.26,1121.2C436.524,1112.46 421.486,1103 415.851,1100.17C406.295,1095.37 384.551,1087.8 380.319,1087.8C379.287,1087.8 385.033,1094.14 393.089,1101.89C407.486,1115.74 407.835,1116.27 413.926,1133.61C420.494,1152.31 421.237,1156.11 418.286,1156.11C412.503,1156.11 386.974,1145.67 365.519,1134.52C333.578,1117.92 320.213,1113.41 302.919,1113.41C288.539,1113.41 288.238,1114.6 301.428,1119.33C306.125,1121.01 314.195,1124.74 319.36,1127.61C330.364,1133.72 366.86,1157.79 376.223,1165.12C387.984,1174.31 381.325,1172.06 363.322,1160.76C329.119,1139.29 317.341,1134.37 272.398,1122.83C255.487,1118.49 240.117,1114.5 238.238,1113.96C235.154,1113.09 235.227,1113.43 238.989,1117.5C241.279,1119.98 246.662,1124.1 250.946,1126.65C257.763,1130.73 258.248,1131.38 254.823,1131.88C252.675,1132.22 247.065,1131.62 242.359,1130.62C233.203,1128.66 198.754,1128.45 181.885,1130.23L171.635,1131.33L189.539,1137.06C209.429,1143.44 252.266,1154.42 270.689,1157.86C286.024,1160.72 289.729,1163.75 275.868,1162.09C256.89,1159.83 197.365,1149.59 176.757,1145.05C147.183,1138.53 131.91,1133.17 105.883,1120.19C80.09,1107.32 58.876,1099.98 43.56,1098.62C34.294,1097.79 28.358,1098.62 3.838,1104.36C1.729,1104.85 0,1104.56 0,1103.65C0,1102.77 7.877,1099.52 17.504,1096.42C30.328,1092.3 39.362,1090.57 51.29,1089.93C66.467,1089.12 68.618,1089.44 82.885,1094.56C122.119,1108.64 131.556,1111.66 144.091,1114.21C162.133,1117.86 193.98,1119.98 211.66,1118.71L226.069,1117.67L204.579,1107C184.643,1097.1 160.999,1081.62 162.907,1079.71C163.344,1079.28 168.052,1080.87 173.333,1083.29C189.711,1090.78 204.778,1092.9 242.011,1092.93C280.962,1092.93 310.671,1095.09 325.338,1098.92C330.973,1100.38 344.228,1105.33 354.796,1109.9C365.366,1114.47 374,1117.7 373.992,1117.09C373.992,1114.45 360.533,1099.44 352.661,1093.24C347.967,1089.54 331.444,1078.59 315.947,1068.92C284.102,1049.04 275.462,1042.92 278.042,1042.06C279.026,1041.72 282.906,1043.04 286.668,1044.96C296.572,1050.01 321.684,1056.13 350.101,1060.41C387.159,1066 394.271,1068.91 447.398,1100.31C460.99,1108.35 472.473,1114.56 472.915,1114.12C473.349,1113.68 459.544,1098.92 442.222,1081.34C398.265,1036.69 356.037,989.362 326.404,951.503L320.658,944.167L335.957,945.323C361.913,947.285 371.645,941.984 382.535,919.947C386.359,912.22 389.948,903.013 390.509,899.49C391.425,893.781 391.144,893.089 387.91,893.089C385.914,893.089 375.25,897.698 364.204,903.339C331.637,919.962 322.299,920.055 301.133,903.951C277.461,885.949 251.745,850.64 239.085,818.77C226.664,787.504 222.403,757.644 220.201,686.438C218.483,630.788 216.85,612.21 209.778,567.743C204.163,532.449 204.157,479.409 209.778,454.371C227.095,377.025 278.283,314.779 356.094,276.449C384.579,262.414 403.662,256 438.069,248.885C462.078,243.921 466.098,243.578 502.109,243.437C571.068,243.147 612.734,253.242 678.002,285.948C718.118,306.051 748.681,314.495 782.195,314.731C799.903,314.872 805.484,314.243 814.941,311.114C831.932,305.495 835.869,302.57 857.812,279.286C880.328,255.396 897.146,241.211 924.797,222.8C992.676,177.608 1080.71,147.841 1164.35,141.803C1188.79,140.037 1219.09,141.576 1243.48,145.845C1251.3,147.212 1258.03,147.983 1258.46,147.555C1258.89,147.121 1258.17,143.518 1256.85,139.518C1252.26,125.532 1238.12,107.127 1212.15,81.306C1198.12,67.374 1187.09,55.542 1187.63,55.009C1188.89,53.745 1214.25,68.4 1226.23,77.312C1231.39,81.156 1242.73,91.168 1251.42,99.561C1263.12,110.866 1267.22,113.95 1267.22,111.455C1267.22,106.353 1274.58,85.808 1280.85,73.38C1291.11,53.073 1327.89,2.375 1333.96,0.181C1337.1,-0.961 1335.38,3.288 1328.48,13.683C1324.6,19.522 1319.14,29.375 1316.35,35.583C1313.56,41.788 1307.2,55.315 1302.21,65.65C1292.62,85.527 1282.59,114.602 1282.59,122.502C1282.59,127.877 1287.44,135.831 1289.41,133.676C1290.12,132.897 1291.66,129.178 1292.82,125.422C1302.06,95.511 1337.79,53.708 1375.47,28.726C1386.63,21.322 1396.43,15.267 1397.24,15.267C1400.7,15.267 1398.06,18.578 1387.97,26.932C1376.05,36.797 1366.66,47.103 1346.51,72.479C1323.07,101.976 1310.74,122.638 1307.39,138.025L1306.13,143.793L1311.86,142.815C1348.5,136.576 1360.26,135.68 1405.55,135.686C1442.19,135.686 1456.83,136.358 1472.15,138.745C1547.88,150.523 1609.12,177.109 1661.22,220.825C1677.08,234.122 1697.62,257.012 1706.91,271.723L1711.94,279.692L1738.49,286.62C1778.34,297.017 1795.72,299.313 1827.23,298.335C1849.35,297.652 1856.34,296.768 1868.56,293.091C1892.71,285.831 1908.97,278.787 1932.47,265.397C1966.37,246.081 1984.39,239.791 2028.76,231.795C2047.73,228.382 2055.67,227.937 2096.36,228.005C2137.53,228.061 2144.39,228.498 2160.41,231.931C2212.95,243.184 2254.18,264.214 2286.14,296.05C2303.68,313.532 2314.08,328.612 2326.08,353.974C2368.05,442.709 2371.81,590.973 2335.39,721.449C2321.98,769.484 2306.95,807.786 2284.78,850.365C2263.14,891.952 2241.84,924.1 2224.3,941.635C2212.18,953.762 2211.14,953.986 2205.8,945.547C2198.43,933.894 2176.36,920.412 2164.65,920.412C2162.52,920.412 2159.05,921.815 2156.93,923.53L2153.08,926.651L2157.17,930.472C2159.42,932.573 2165.27,936.595 2170.18,939.404C2180.22,945.159 2191.06,956.806 2191.33,962.133C2192,975.3 2189.01,983.404 2176.43,1002.54C2167.2,1016.57 2138.76,1046.79 2118.8,1063.78C2111.69,1069.84 2106.08,1075.01 2106.34,1075.27C2106.58,1075.52 2110.69,1074.27 2115.44,1072.47C2130.1,1066.9 2149.89,1062.5 2177.48,1058.69C2208.43,1054.42 2220.84,1051.74 2237.41,1045.77C2244.07,1043.37 2249.88,1041.76 2250.32,1042.21C2251.26,1043.15 2210.17,1068.51 2190.29,1079.25C2182.78,1083.31 2172.02,1089.89 2166.38,1093.87C2153.32,1103.09 2135.08,1120.4 2137.46,1121.31C2138.46,1121.7 2149.73,1116.98 2162.51,1110.84C2199.33,1093.14 2201.63,1092.73 2274.83,1091.34L2337.16,1090.17L2352.11,1084.91C2360.33,1082.01 2367.05,1080.31 2367.05,1081.11C2367.05,1083.73 2350.26,1095.93 2340.17,1100.64C2306.85,1116.21 2307.64,1115.73 2313.26,1116.98C2321.38,1118.78 2354.51,1118.65 2371.32,1116.75C2393.44,1114.25 2418.49,1107.85 2442.56,1098.55C2463.22,1090.57 2463.85,1090.44 2483.19,1090.44C2500.83,1090.44 2504.51,1091 2519.48,1096.02C2528.63,1099.09 2536.13,1102.38 2536.13,1103.34C2536.13,1104.3 2534.78,1104.67 2533.14,1104.16C2499.48,1093.79 2479.86,1096.67 2435.06,1118.55C2405.3,1133.08 2391.63,1137.73 2359.98,1144.1C2332.2,1149.69 2249.24,1161.8 2247.9,1160.46C2246.6,1159.16 2249.48,1158.42 2274.83,1153.5C2287.51,1151.04 2312.78,1145.24 2330.97,1140.6C2349.17,1135.97 2364.5,1132.17 2365.04,1132.17C2365.59,1132.17 2365.09,1131.25 2363.97,1130.12C2362.49,1128.64 2350.5,1128.04 2320.94,1127.99C2298.4,1127.99 2279.95,1127.73 2279.95,1127.55C2279.95,1127.35 2283.41,1124.83 2287.64,1121.92C2291.87,1119.01 2295.32,1116.07 2295.32,1115.38C2295.32,1113.8 2233.45,1129.09 2221.02,1133.73C2207.97,1138.62 2182.89,1151.41 2169.33,1160.1C2154.12,1169.84 2150.16,1171.88 2150.16,1169.98C2150.16,1167.63 2196.53,1137.69 2213.35,1129.18C2221.33,1125.14 2234.4,1119.56 2242.38,1116.79L2256.9,1111.74L2234.62,1111.74C2220.21,1111.74 2208.76,1112.62 2202.18,1114.3C2196.58,1115.73 2177.01,1124.1 2158.7,1132.91C2140.38,1141.73 2122.78,1149.79 2119.59,1150.82C2102.67,1156.29 2095.45,1150.73 2095.61,1132.4C2095.7,1118.21 2098.53,1109.86 2104.05,1107.21C2106.4,1106.09 2114.08,1102.46 2121.13,1099.13C2128.17,1095.82 2136.62,1090.71 2139.91,1087.78L2145.89,1082.46L2134.4,1083.47C2108.12,1085.76 2086.99,1097.06 2052.78,1127.13C2030.4,1146.8 2022.45,1152.69 2018.29,1152.69C2015.07,1152.69 2015.07,1152.61 2018.38,1148C2026.45,1136.7 2043.71,1119.75 2057.94,1109.16C2066.4,1102.86 2073.33,1097.47 2073.33,1097.19C2073.33,1096.51 2010.24,1125.2 1996.95,1131.94C1984.16,1138.42 1980.54,1138.62 1975.05,1133.13C1970.1,1128.18 1969.42,1118.9 1973.56,1112.59C1976.34,1108.35 1987.68,1100.43 1999.27,1094.64L2005.87,1091.35L1997.58,1091.29C1987.65,1091.21 1971.14,1095.27 1961.57,1100.13C1948.54,1106.76 1929.99,1122.17 1912.78,1140.68C1897.69,1156.91 1888.88,1163.88 1888.88,1159.59C1888.88,1156.51 1915.02,1123.54 1923.91,1115.42C1929.22,1110.57 1932.81,1106.6 1931.9,1106.6C1923.81,1106.6 1876.77,1121.5 1858.31,1129.91C1851.35,1133.08 1845.35,1135.36 1844.96,1134.97C1843.84,1133.85 1847.94,1120.01 1851.34,1113.43C1853.05,1110.14 1857.57,1104.41 1861.41,1100.7C1865.25,1096.99 1868.39,1093.32 1868.39,1092.56C1868.39,1090.37 1851.34,1099.47 1841.83,1106.73C1837.08,1110.36 1829.44,1118.82 1824.84,1125.55C1818.64,1134.62 1813.58,1139.7 1805.29,1145.16C1799.13,1149.22 1791.21,1154.96 1787.69,1157.91C1780.48,1163.96 1778.87,1162.38 1785.74,1155.99C1788.19,1153.71 1796.22,1143.79 1803.57,1133.92C1811.28,1123.61 1821.05,1112.82 1826.59,1108.52C1841.12,1097.26 1852.93,1089.6 1857.61,1088.43C1860.16,1087.79 1861.19,1086.76 1860.24,1085.8C1859.28,1084.85 1854.59,1084.89 1848.26,1085.89C1840.74,1087.1 1825.4,1093.46 1792.92,1108.83C1753.27,1127.59 1727.27,1139.02 1724.21,1139.02C1721.11,1139.02 1724.31,1130.88 1731.78,1119.67C1740.31,1106.92 1754.73,1092.26 1764.3,1086.61C1767.07,1084.97 1769.33,1082.92 1769.33,1082.06C1769.33,1078.06 1751.32,1083.68 1726.81,1095.33C1712.15,1102.29 1697.09,1108.82 1693.34,1109.84C1684.93,1112.1 1672.53,1112.25 1671.21,1110.13C1670.67,1109.26 1672.44,1102.91 1675.14,1096.04C1677.85,1089.16 1681.06,1079.31 1682.26,1074.15C1684.78,1063.39 1688.89,1053.64 1694.4,1045.32C1698.09,1039.74 1698.11,1039.61 1694.74,1041.41C1688.79,1044.6 1668.05,1068.06 1661.83,1078.63C1658.59,1084.14 1649.84,1098.57 1642.38,1110.66L1628.84,1132.67L1620.44,1116.35C1611.12,1098.26 1601.57,1086.34 1591.03,1079.67C1584.87,1075.78 1554.25,1064.96 1552.98,1066.22C1552.69,1066.52 1559.02,1070.01 1566.99,1074.06C1575.31,1078.28 1583.99,1084.19 1587.4,1087.96C1594.08,1095.35 1602.81,1111.48 1601.06,1113.17C1600.43,1113.78 1595.95,1109.98 1591.13,1104.72C1581.58,1094.33 1575.02,1089.18 1561.85,1081.74C1555.08,1077.92 1553.92,1077.62 1556.25,1080.31C1559.14,1083.64 1571.24,1108.52 1571.24,1111.12C1571.24,1111.85 1567.59,1108.9 1563.13,1104.57C1554.49,1096.19 1546.69,1091.73 1532.64,1087.14C1527.84,1085.57 1520.23,1081.94 1515.71,1079.08L1507.51,1073.88L1515.04,1082.75C1528.85,1099.02 1542.18,1115.97 1542.2,1117.27C1542.2,1120.51 1536.88,1117.57 1524.28,1107.4C1507,1093.46 1494.14,1086.6 1479.48,1083.49C1459.72,1079.31 1453.73,1080.68 1471.76,1085.27C1487.37,1089.24 1495.82,1093.53 1501.67,1100.47C1506.73,1106.47 1515.32,1122.1 1514.18,1123.24C1513.59,1123.83 1509.86,1121.16 1505.88,1117.31C1501.91,1113.45 1495.48,1108.67 1491.59,1106.67C1483.27,1102.39 1458.53,1094.51 1458.53,1096.14C1458.53,1098.99 1468.92,1112.21 1482.13,1126.17C1503.63,1148.89 1509.81,1165.55 1504.06,1185.3C1493.52,1221.43 1453.45,1239.15 1416.35,1224.08L1405.76,1219.78L1399.64,1229C1376.2,1264.29 1334,1287.57 1284.19,1292.68C1265.08,1294.64 1262.15,1294.63 1242.79,1292.6L1242.74,1292.58M1270.62,1269.6C1291.94,1264.61 1311.22,1255.83 1326.12,1244.3C1329.88,1241.39 1341.62,1230.68 1352.23,1220.5C1363.56,1209.6 1374.55,1200.63 1378.91,1198.69C1386.18,1195.48 1386.33,1195.24 1387.11,1185.92C1388.08,1174.19 1391.49,1169.98 1397.69,1172.81C1401.86,1174.7 1402.27,1175.67 1407.39,1195.66C1410.62,1208.26 1427.24,1217.37 1442.74,1215.05C1448.31,1214.21 1452.31,1212.06 1457.96,1206.85C1466,1199.45 1476.68,1180.91 1473.9,1179.2C1470.42,1177.05 1462.37,1180.8 1454.81,1188.1C1448.5,1194.19 1445.34,1195.94 1439.42,1196.61C1423.27,1198.43 1419.02,1184.34 1432.39,1173.32C1440.09,1166.97 1460.29,1159.43 1473.37,1158.02L1483.17,1156.97L1474.5,1150.61C1455.46,1136.64 1415.22,1121.91 1396.35,1121.98C1367.18,1122.07 1328.34,1141.81 1295.86,1172.96C1285.59,1182.81 1280.1,1186.93 1278.22,1186.21C1276.01,1185.35 1277.05,1183.17 1283.73,1174.57C1296.58,1158.06 1312.19,1142.05 1323.48,1133.82C1329.16,1129.69 1333.81,1125.62 1333.81,1124.76C1333.81,1123.91 1327.9,1123.59 1320.57,1124.03C1310.53,1124.65 1304.49,1126.15 1295.57,1130.23C1279.35,1137.66 1258.97,1151.68 1239.43,1168.87C1211.11,1193.77 1218.13,1179.48 1248.68,1150.07C1267.36,1132.08 1274.83,1126.42 1288.12,1120.2C1305.45,1112.09 1320.52,1109.66 1350.88,1110.11C1365.44,1110.31 1382.31,1109.82 1388.36,1108.97L1399.36,1107.44L1410.87,1076.79C1429.41,1027.38 1435.78,1000.86 1440.58,952.88C1443.71,921.679 1445.75,908.827 1449.28,897.857C1452.11,889.089 1459.95,879.44 1464.25,879.44C1468.57,879.44 1472.05,886.572 1473.22,897.863L1474.32,908.359L1482.2,910.891C1506.43,918.68 1532.81,918.882 1549.37,911.412C1561.38,905.987 1574.69,893.869 1583.53,880.296L1590.21,870.049L1585.39,869.006C1582.75,868.436 1573.28,868.34 1564.36,868.808C1550.83,869.505 1548.5,869.244 1550.3,867.345C1553.27,864.196 1583.36,863.087 1593.29,865.757C1602.06,868.122 1612.18,877.303 1612.18,882.904C1612.18,886.64 1612.09,886.632 1605.97,881.96L1599.77,877.221L1593.74,884.744C1583.89,897.015 1565.79,914.037 1554.92,921.254C1529.32,938.245 1505.17,942.313 1474.94,934.716C1469.43,933.338 1464.61,932.525 1464.22,932.916C1463.83,933.304 1459.3,952.373 1454.17,975.28C1449.03,998.189 1441.26,1028.08 1436.9,1041.69C1429.49,1064.84 1425.56,1083.58 1428.77,1080.47C1429.54,1079.72 1432.12,1075.49 1434.5,1071.07C1440.75,1059.49 1454.77,1052.9 1491,1044.5C1553.85,1029.93 1586.15,1019.69 1618.25,1004.16C1684.87,971.94 1733.81,921.18 1751.08,866.398C1761.17,834.378 1762.54,805.808 1755.68,770.153C1751.56,748.755 1747.46,736.985 1734.22,708.653C1722.45,683.45 1718.16,669.464 1708.59,624.983C1699.99,585.02 1700.15,586.043 1703.11,589.122C1704.46,590.53 1708.47,600.905 1712.01,612.179C1718.68,633.387 1723.91,645.48 1726.41,645.48C1728.6,645.48 1738.1,623.203 1742.67,607.391C1749.87,582.483 1752.59,562.518 1753.48,528.089C1753.97,510.024 1754.93,495.601 1755.64,496.046C1758.88,498.047 1765.58,546.131 1767.54,581.44C1770.35,631.95 1765.57,665.464 1753.75,678.118C1748.66,683.566 1749.04,684.76 1755.87,684.76C1761.53,684.76 1762.77,682.739 1766.61,667.247C1774.43,635.644 1776.59,579.651 1771.93,529.347C1767.12,477.442 1765.09,469.701 1746.87,433.468C1740.42,420.659 1729.4,396.887 1722.38,380.65C1696.56,320.913 1668.43,278.782 1631.12,243.958C1588.68,204.35 1535.21,177.026 1477.09,165.257C1460.2,161.836 1452.86,161.337 1421.76,161.467C1378.64,161.666 1365.43,163.97 1319.88,179.325C1303.3,184.918 1286.75,189.493 1283.09,189.493C1279.43,189.493 1268.79,187.498 1259.44,185.057C1224.18,175.864 1211.17,173.974 1176.69,172.996C1151.15,172.267 1138.4,172.704 1122.04,174.852C1066.95,182.092 1009.96,200.316 961.963,226.043C919.791,248.649 892.624,270.808 868.133,302.579C857.741,316.057 853.634,320.003 846.266,323.609C827.473,332.802 789.99,335.364 747.292,330.367C711.071,326.132 681.633,318.002 643.847,301.799C619.651,291.427 592.328,282.77 565.883,277.101C545.187,272.667 541.468,272.401 500.391,272.407C461.735,272.407 454.89,272.84 439.512,276.205C378.95,289.471 328.085,319.827 294.744,362.614C279.411,382.292 267.9,403.282 256.232,432.848C250.671,446.944 242.923,465.775 239.012,474.698C229.433,496.576 226.746,510.197 226.718,537.032C226.718,562.175 228.475,577.86 235.953,618.154C240.029,640.117 241.424,653.391 242.277,678.322L243.366,710.311L254.418,701.748C260.498,697.042 273.254,688.924 282.77,683.717C292.331,678.481 306.482,668.713 314.413,661.881C348.131,632.82 369.624,619.05 397.922,608.369C409.632,603.95 449.85,592.54 453.713,592.54C459.573,592.54 454.572,595.593 440.164,600.823C400.757,615.118 383.068,625.918 278.555,699.477C273.056,703.349 263.092,708.729 256.408,711.437L244.261,716.355L244.261,723.339C244.261,732.594 247.703,758.718 249.168,760.3C250.781,762.038 280.395,745.415 297.037,733.428C318.45,718.013 331.719,705.946 348.63,686.494C357.194,676.647 369.677,664.172 376.373,658.769C390.138,647.663 413.68,635.391 430.821,630.391C443.441,626.706 448.447,628.483 437.771,632.854C419.746,640.242 392.766,654.369 385.495,660.231C380.996,663.857 370.619,675.626 362.441,686.378C346.484,707.343 335.54,716.905 309.135,732.954C296.008,740.931 256.513,761.786 251.144,763.577C246.268,765.204 259.855,812.982 270.944,833.221C281.784,852.996 302.139,876.94 314.544,884.511C324.292,890.45 334.202,888.625 347.655,878.394C358.098,870.46 368.41,867.129 380.577,867.762L391.87,868.348L403.26,854.178C409.524,846.38 419.139,831.804 424.624,821.781C430.115,811.76 438.503,798.123 443.273,791.478C448.036,784.834 456.077,772.515 461.134,764.101C466.194,755.688 474.99,744.165 480.679,738.496C490.527,728.683 510.554,713.792 513.904,713.792C514.766,713.792 506.869,722.438 496.349,733.008C476.289,753.165 460.721,773.997 435.492,814.433C420.214,838.93 405.283,858.767 396.672,866.015L391.38,870.469L396.473,874.23C414.729,887.734 410.89,899.986 373.255,948.345C363.095,961.401 362.781,967.496 371.9,974.429C380.183,980.725 384.401,985.277 395.442,999.853C400.425,1006.43 407.245,1014.45 410.596,1017.67L416.69,1023.54L421.013,1019.48L425.336,1015.42L418.776,1008.49C403.41,992.268 397.925,982.763 411.228,995.42C415.089,999.088 420.945,1004.15 424.242,1006.67L430.245,1011.25L438.982,1006.49C443.789,1003.88 449.203,999.655 451.012,997.112C455.564,990.729 465.874,968.465 477.437,940.082C490.66,907.608 505.31,879.497 517.518,863.164C527.723,849.512 559.003,816.786 570.733,807.486C582.114,798.469 578.854,804.892 563.326,822.095C541.874,845.861 528.911,866.234 503.118,916.705C473.712,974.234 455.389,1005.02 447.117,1010.8C443.631,1013.23 440.983,1015.99 441.224,1016.93C441.468,1017.87 452.373,1025.78 465.457,1034.52C492.559,1052.6 489.563,1052.72 499.507,1033.15C508.654,1015.15 509.42,1010.51 504.638,1001.96C499.796,993.3 495.289,976.873 495.289,967.901C495.289,958.524 497.696,959.964 499.941,970.685C501.883,979.946 510.225,999 512.334,999C512.949,999 514.769,994.825 516.376,989.717C517.989,984.614 524.259,970.39 530.314,958.11C536.372,945.831 544.861,927.145 549.184,916.588C567.422,872.036 576.156,861.891 610.787,845.053C622.42,839.398 632.775,835.047 633.798,835.39C634.813,835.73 628.5,840.212 619.764,845.348C599.253,857.407 585.754,868.657 576.088,881.756C566.861,894.266 546.914,934.934 531.998,971.674C526.088,986.236 520.336,1000.15 519.214,1002.59C517.286,1006.79 517.737,1007.58 526.912,1016.25C539.504,1028.17 548.765,1034.69 565.364,1043.33C590.868,1056.59 599.896,1059.24 620.813,1059.6C638.371,1059.89 640.826,1060.39 658.389,1067.1C668.721,1071.04 689.468,1078.74 704.5,1084.21C719.527,1089.68 736.705,1096.62 742.671,1099.63C748.636,1102.64 753.939,1104.69 754.452,1104.17C755.932,1102.7 746.493,1090.03 740.597,1085.58C737.649,1083.36 729.476,1078.22 722.432,1074.16C715.113,1069.94 704.863,1061.89 698.522,1055.39C685.908,1042.45 665.365,1016.22 666.76,1014.82C667.273,1014.31 672.676,1018.56 678.77,1024.26C692.388,1037 707.72,1045.75 727.693,1052.17C736.07,1054.86 743.499,1057.07 744.208,1057.06C744.908,1057.06 745.52,1051.1 745.554,1043.82C745.603,1034.13 746.85,1026.94 750.214,1016.93C755.495,1001.23 759.138,984.362 760.813,967.836C761.457,961.492 762.806,956.302 763.812,956.302C766.355,956.302 764.337,983.041 760.014,1006.55C756.009,1028.35 755.575,1049.63 758.968,1057.75C760.808,1062.15 763.072,1064.04 768.906,1066.03L776.458,1068.6L774.924,1058.14C774.077,1052.38 773.836,1036.53 774.383,1022.91C774.933,1009.29 774.624,986.556 773.728,972.391C772.455,952.642 772.648,939.898 774.541,917.739C775.902,901.851 777.025,887.885 777.044,886.714C777.044,885.538 777.73,884.58 778.53,884.58C779.329,884.58 780.491,892.329 781.112,901.809C781.736,911.288 783.768,926.042 785.636,934.6C790.135,955.199 789.922,968.414 784.704,993.061C781.566,1007.89 780.094,1021.27 779.349,1041.69L778.323,1069.88L799.038,1079.55C810.434,1084.87 820.1,1088.66 820.528,1087.97C821.475,1086.43 831.118,1046.68 832.683,1037.85C834.721,1026.35 831.22,1017.44 813.212,988.328C811.035,984.801 809.889,981.935 810.669,981.95C812.418,981.95 828.916,1004.91 831.855,1011.38C834.557,1017.32 835.413,1017.27 839.186,1010.89C840.869,1008.03 845.26,1003.71 848.942,1001.27C854.938,997.302 855.638,996.1 855.629,989.807C855.629,980.654 852.647,961.841 850.286,955.925C849.268,953.365 840.643,940.89 831.115,928.202C802.276,889.778 790.191,864.794 782.167,826.999C777.626,805.612 775.99,760.793 778.564,728.311C780.676,701.705 779.499,685.361 773.34,655.724L769.612,637.792L766.791,647.189C762.695,660.818 748.84,687.776 739.134,700.988C734.516,707.278 730.324,712.006 729.814,711.499C729.306,710.989 730.42,708.415 732.294,705.781C738.93,696.427 745.869,683.651 749.324,674.425C754.22,661.346 763.03,613.834 764.351,593.391C765.706,572.468 769.85,551.463 778.952,519.409C785.443,496.556 786.223,490.068 782.495,490.068C781.654,490.068 775.049,501.934 767.823,516.438C748.834,554.513 719.209,600.744 715.326,598.343C714.339,597.733 715.034,595.777 717.021,593.637C721.38,588.917 744.378,548.365 753.953,528.497C760.334,515.262 770.006,482.426 768.087,480.506C767.75,480.169 766.117,484.07 764.495,489.212C762.88,494.354 757.579,504.499 752.723,511.761C743.216,525.974 719.561,551.551 715.927,551.551C714.702,551.551 717.5,547.69 722.143,542.976C733.028,531.918 742.895,513.258 744.114,501.412C745.384,489.138 741.943,482.933 730.202,476.306C719.408,470.211 717.242,467.915 715.81,461.021L714.745,455.905L694.789,475.121C683.819,485.691 671.93,498.946 668.375,504.587C664.529,510.687 661.697,513.765 661.377,512.198C660.728,509.051 668.339,488.166 673.101,480.013L676.485,474.225L670.561,475.186C661.567,476.646 656.323,480.951 647.351,494.24C636.693,510.038 629.552,516.294 600.494,535.297C577.414,550.403 541.063,572.043 538.787,572.043C535.745,572.043 540.079,568.015 551.262,560.446C571.445,546.795 588.886,530.906 623.65,494.518C666.683,449.467 675.89,435.132 671.117,420.659C668.996,414.238 660.994,408.11 654.71,408.101C652.686,408.101 644.244,411.673 635.947,416.049C627.65,420.426 612.782,426.623 602.906,429.817C576.816,438.256 562.275,447.574 535.853,472.776C528.324,479.957 522.618,484.268 522.618,482.783C522.618,475.217 572.068,431.878 614.511,402.253C622.315,396.805 628.328,391.98 627.877,391.53C627.44,391.093 618.16,393.741 607.283,397.446C596.409,401.148 587.511,403.821 587.511,403.384C587.511,402.12 604.871,373.38 607.476,370.321C609.574,367.866 609.117,367.444 603.346,366.525C599.78,365.953 593.031,363.05 588.345,360.071C557.226,340.291 506.381,330.406 465.996,336.294C421.449,342.788 372.756,369.147 350.569,398.775C333.011,422.218 326.463,441.252 325.023,472.989C324.147,492.296 324.734,500.482 329.125,529.775C331.41,545.049 319.38,531.334 314.495,513.096C303.729,472.915 313.013,420.817 337.516,383.939C380.744,318.855 460.723,287.399 542.985,303.123C580.842,310.354 609.157,323.184 643.054,348.443C654.511,356.987 663.12,365.553 676.641,381.875C693.4,402.117 704.744,412.753 715.601,418.416C718.801,420.086 763.367,440.359 781.566,448.43C782.626,448.914 784.009,447.205 784.65,444.665C785.293,442.108 792.439,433.483 800.66,425.347C808.869,417.226 817.163,407.22 819.21,402.968C821.242,398.741 827.532,385.486 833.182,373.51C843.435,351.774 848.628,345.611 846.32,357.928C844.438,367.977 837.726,390.458 820.644,443.957C801.405,504.224 795.339,527.465 790.571,559.239C784.276,601.166 786.093,647.209 794.682,663.602L797.139,668.296L811.551,648.777C819.482,638.039 828.224,626.006 830.982,622.035C833.743,618.06 836.963,614.792 838.134,614.775C841.241,614.718 840.966,615.515 833.36,628.537C821.001,649.698 808.951,681.276 803.282,707.36C798.973,727.183 798.965,779.975 803.282,801.746C813.356,852.715 835.296,900.085 866.574,938.373C879.075,953.674 923.428,1000.48 936.774,1012.47C966.268,1038.93 1000.9,1048.43 1040.62,1040.96C1057.92,1037.71 1097.4,1024.41 1101.29,1020.52C1106.1,1015.71 1099.53,948.359 1093.69,942.636C1092.85,941.814 1084.67,942.976 1075.11,945.317C1027.71,956.832 997.333,945.232 968.842,904.643L959.547,891.408L951.69,891.408C941.723,891.408 930.759,896.661 926.821,903.328C920.699,913.697 918.317,907.597 923.791,895.547C928.4,885.396 933.415,883.857 957.796,885.107C979.537,886.218 987.378,887.797 988.546,891.298C989.141,893.095 987.301,893.316 979.69,892.363C974.404,891.703 970.078,891.655 970.078,892.278C970.078,894.983 980.949,908.776 987.494,914.38C1006.23,930.416 1028.19,934.458 1054.87,926.785C1063.18,924.392 1073.56,920.903 1077.92,919.018C1085.43,915.795 1085.98,915.097 1087.82,906.528C1090.37,894.64 1093.61,889.741 1098.13,890.926C1107.98,893.503 1114.13,910.638 1116.07,940.955C1116.65,949.881 1117.8,997.143 1118.64,1045.98C1120.36,1145.2 1122.15,1166.5 1131.09,1193.64C1144.23,1233.56 1174.71,1260.07 1218.57,1269.74C1232.54,1272.82 1257.22,1272.77 1270.65,1269.65L1270.62,1269.6M1233.9,1040.56C1205.6,1033.07 1177.44,1032.23 1152.35,1038.12C1143.12,1040.28 1144.45,1037.31 1154.06,1034.29C1172.96,1028.35 1193.38,1026.14 1211.71,1028.02C1227.74,1029.68 1252.08,1037.25 1256.28,1041.88C1259.07,1044.97 1258.99,1045.09 1254.23,1044.86C1251.5,1044.72 1242.35,1042.8 1233.9,1040.56M1267.92,1024.78C1240.43,1013.96 1229.4,1011.91 1198.89,1011.96C1183.39,1011.96 1167.27,1012.88 1163.07,1013.94C1153.71,1016.31 1151.9,1015.25 1159.77,1012.01C1178.71,1004.23 1224.81,1002.65 1247.56,1009.01C1263.85,1013.56 1281.47,1022.57 1282.26,1026.74C1282.98,1030.56 1282.4,1030.48 1267.92,1024.78M1287.93,1002.98C1270.64,994.791 1250.93,990.031 1237.23,990.737C1224.79,991.378 1223.17,990.023 1232.62,986.879C1241.72,983.849 1262.96,984.163 1274.06,987.491C1284.02,990.476 1298.15,999.502 1302.42,1005.6C1306,1010.71 1303.16,1010.2 1287.93,1002.98M1308.19,971.269C1281.19,957.702 1247.26,953.787 1213.64,960.352C1198.23,963.363 1192.73,963.034 1201.64,959.635C1227.82,949.643 1268,947.262 1290.9,954.337C1304.54,958.555 1313.49,963.561 1320.04,970.628C1326.8,977.933 1321.97,978.191 1308.19,971.269M1146.71,903.206C1145.35,901.015 1143.96,902.18 1161.54,890.77C1204.47,862.897 1245.1,852.165 1278.4,859.887C1287.82,862.07 1292.04,862.197 1302.52,860.607C1317.53,858.334 1326.48,859.524 1337.98,865.329C1351.06,871.931 1378.95,899.929 1374.92,902.418C1374.01,902.985 1368.36,899.005 1362.36,893.574C1342.06,875.171 1326.51,869.97 1300.5,872.875C1284.82,874.627 1282.37,874.488 1270.51,871.138C1253.1,866.22 1244.62,866.529 1224.95,872.807C1202.34,880.024 1167.54,893.889 1156.7,899.991C1151.08,903.158 1147.41,904.34 1146.71,903.206M1197.18,850.093C1197.18,848.602 1203.74,846.791 1227.92,841.618C1249.45,837.014 1285.32,836.167 1298.37,839.957C1302.83,841.255 1306.48,842.899 1306.48,843.61C1306.48,844.328 1291.3,845.447 1272.75,846.099C1254.2,846.748 1229.61,848.2 1218.1,849.319C1206.6,850.442 1197.18,850.791 1197.18,850.093M303.219,831.934C304.571,830.772 321.214,825.429 353.137,815.916C359.943,813.886 370.369,801.227 392.936,767.577C418.204,729.896 441.499,708.143 473.922,691.965C492.999,682.444 530.867,673.56 534.957,677.65C536.128,678.818 534.26,679.983 529.211,681.248C478.848,693.848 468.068,701.464 413.036,763.308C361.395,821.341 357.693,824.494 333.839,830.704C323.334,833.445 300.402,834.364 303.219,831.934M1153.17,814.119C1154.44,810.105 1177.95,799.824 1202.52,792.524C1216.02,788.516 1235.52,782.033 1245.85,778.116C1263.34,771.489 1265.82,770.995 1281.72,770.995L1298.8,770.995L1324.41,783.278C1338.5,790.03 1354.45,797.19 1359.85,799.194C1365.25,801.198 1369.67,803.571 1369.67,804.475C1369.67,808.858 1362.18,807.367 1338.82,798.333C1298.27,782.657 1284.53,780.755 1259.37,787.334C1251.93,789.279 1231.25,794.605 1213.4,799.172C1195.56,803.735 1175.25,809.447 1168.27,811.862C1153.86,816.854 1152.22,817.098 1153.17,814.119M1079.34,793.003C1042.12,776.089 990.193,765.017 948.076,765.017C925.557,765.017 906.077,767.577 882.298,773.668C874.896,775.562 868.448,776.713 867.966,776.228C864.85,773.11 890.751,759.538 905.556,756.524C915.993,754.404 920.514,750.407 920.514,743.301C920.514,741.169 915.591,729.862 909.573,718.174C896.794,693.349 893.186,679.796 893.186,656.592C893.186,595.851 929.401,546.123 979.86,537.574C1018.17,531.082 1057.03,554.556 1078.27,597.027C1091.08,622.621 1095.7,645.437 1094.26,675.867C1093.42,693.524 1092.52,698.074 1086.47,714.951C1082.7,725.46 1078.68,739.891 1077.53,747.031C1076.11,755.827 1073.71,762.877 1070.07,768.917L1064.7,777.827L1079.14,785.514C1099.78,796.499 1099.94,802.361 1079.33,793.003L1079.34,793.003M1040.12,702.17C1050.83,691.466 1051.15,676.069 1040.73,673.449C1034.41,671.865 1028.12,676.049 1023.3,685.057C1018.72,693.621 1019.29,701.022 1024.88,705.671C1030.14,710.036 1032.88,709.407 1040.12,702.17M1084.37,668.58C1082.47,651.827 1076.34,631.607 1069.58,619.852C1054.05,592.821 1028.82,572.179 1001.65,564.282C988.73,560.526 968.04,561.634 954.343,566.819C944.728,570.461 925.637,583.217 925.637,586.003C925.637,586.797 928.905,586.862 932.899,586.145C946.185,583.767 978.644,584.855 990.434,588.076C1029.3,598.689 1059.98,624.436 1075.82,659.733C1078.48,665.668 1081.22,673.146 1081.9,676.352C1083.27,682.69 1084.44,685.338 1085.45,684.329C1085.79,683.991 1085.3,676.885 1084.37,668.574L1084.37,668.58M964.746,666.907C975.297,661.453 983.718,647.345 983.665,635.224C983.665,627.231 976.578,617.519 968.856,614.832C962.425,612.595 961.149,612.66 954.669,615.583C941.151,621.677 930.328,639.972 933.236,651.804C936.774,666.201 952.002,673.498 964.746,666.907M1463.6,784.125C1463.6,783.36 1465.88,780.557 1468.66,777.889L1473.72,773.042L1469.55,768.095C1463.47,760.859 1460.19,747.74 1460.19,730.63C1460.19,718.611 1459.16,712.505 1455.03,699.775C1446.32,672.911 1444.24,659.302 1445.23,635.275C1446.68,599.888 1457.76,572.482 1479.23,551.169C1498.58,531.969 1524.52,521.328 1548.11,522.916C1562.69,523.894 1582.17,530.487 1594.31,538.551C1638.86,568.125 1660.87,635.525 1643.72,689.757C1636.07,713.94 1638.73,719.878 1662.62,731.937C1683.73,742.589 1704.25,758.908 1700.84,762.321C1700.35,762.803 1693.33,759.875 1685.23,755.81C1659.8,743.049 1635.73,738.904 1601.46,741.387C1556.07,744.678 1507.94,759.291 1476.72,779.264C1466.97,785.5 1463.6,786.747 1463.6,784.125M1514.66,752.275C1527.55,748.848 1528.61,746.921 1518.3,745.702C1504.55,744.075 1489.44,736.498 1470.99,721.984C1469.49,720.819 1469.54,722.537 1471.13,728.623C1477.47,752.632 1489.25,759.039 1514.65,752.275L1514.66,752.275M1586,730.293C1607.34,714.583 1622.34,691.234 1629.49,662.59C1632.52,650.483 1632.96,644.905 1632.19,628.435C1631.08,604.559 1627.26,592.362 1615.29,574.478C1600.27,552.01 1578.89,537.786 1558.17,536.465C1539.88,535.3 1530.68,539.864 1547.33,541.834C1565.87,544.034 1589.34,561.436 1602.63,582.849C1625.63,619.892 1628.37,658.67 1610.49,694.21C1602.91,709.271 1592.1,722.662 1580.15,731.784C1568.9,740.37 1574.11,739.043 1586,730.293M1575.32,677.089C1585.3,667.117 1585.61,651.591 1575.91,648.179C1569.95,646.081 1563.76,649.261 1559.08,656.819C1553.69,665.552 1553.15,672.82 1557.5,678.348C1562.54,684.757 1568.05,684.369 1575.32,677.089M1528.02,616.589C1537.59,609.659 1542.83,598.348 1541.74,586.973C1541.03,579.64 1539.9,577.31 1534.72,572.564C1521.91,560.832 1503.94,568.219 1494.48,589.113C1490.24,598.476 1490.08,603.04 1493.71,610.693C1499.34,622.553 1515.86,625.397 1528.02,616.589M1152.78,751.501C1152.78,746.736 1178.83,731.123 1197.21,724.876C1222.74,716.19 1235.5,714.679 1283.43,714.657C1324.68,714.657 1328.69,714.912 1339.99,718.461C1353.43,722.69 1371.13,733.609 1375.6,740.418C1379.91,746.997 1377.59,747.289 1368.32,741.334C1363.74,738.4 1355.45,734.301 1349.89,732.217C1340.38,728.666 1336.55,728.405 1284.98,727.838C1233.97,727.277 1229.21,727.498 1216.29,730.777C1200.79,734.737 1180.6,741.96 1166.44,748.616C1156.52,753.276 1152.78,754.067 1152.78,751.501M1636.41,555.676C1633.34,549.451 1626.88,540.179 1622.05,535.082C1613.03,525.543 1580.25,502.492 1569.06,497.815C1556.54,492.588 1519.83,496.338 1501.04,504.771C1488.63,510.344 1476.12,523.094 1466.05,540.439C1459.69,551.395 1458.33,552.96 1459.16,548.325C1461.14,537.208 1475.62,510.644 1484.82,501.222C1504.12,481.448 1531.1,475.342 1564.18,483.273C1587.92,488.965 1602.8,497.94 1622.56,518.505C1635.97,532.451 1642.22,542.832 1643.49,553.249C1645.21,567.363 1642.61,568.256 1636.41,555.676M900.7,555.477C902.398,537.568 914.051,523.4 936.238,512.274C960.642,500.04 984.915,498.753 1004.87,508.635C1015.42,513.856 1028.96,523.902 1027.47,525.393C1027.04,525.83 1021.05,522.87 1014.19,518.794C1002.25,511.702 1001.11,511.384 988.007,511.384C975.413,511.384 973.097,511.965 959.292,518.596C942.375,526.725 915.616,544.448 909.825,551.356C907.719,553.87 904.615,557.813 902.931,560.123L899.861,564.324L900.7,555.477M870.985,484.206C870.985,483.817 882.323,474.228 896.179,462.895C919.687,443.662 924.599,438.653 942.721,415.454C954.643,400.19 976.09,389.171 989.116,391.615C994.107,392.556 1012.33,405.332 1012.64,408.104C1012.69,408.597 1009.76,408.719 1006.13,408.396C997.177,407.537 981.105,411.885 967.11,418.949C954.967,425.072 910.763,455.437 886.904,474.041C873.924,484.157 870.985,486.037 870.985,484.226L870.985,484.206M1635.2,459.105C1612.44,436.014 1590.8,417.512 1579.51,411.494C1560.54,401.38 1516.85,393.324 1488.09,394.628C1475.36,395.209 1474.31,395.014 1475.75,392.323C1478.87,386.495 1492.78,377.504 1500.46,376.353C1522.89,372.991 1560.27,385.231 1583.91,403.685C1592.3,410.23 1653.17,471.813 1653.17,473.76C1653.17,476.51 1649.02,473.125 1635.2,459.105M1568.63,367.319C1562.06,364.7 1544,356.026 1528.5,348.041C1500.6,333.675 1495.69,331.926 1459.53,323.527C1441.33,319.3 1424.28,312.358 1415.81,305.731C1408.4,299.931 1413.45,299.889 1427.22,305.646C1451.82,315.91 1469.42,321.026 1494.51,325.213C1525.59,330.392 1531.99,332.793 1562.28,350.634C1575.68,358.534 1588.94,365.944 1591.73,367.104C1594.53,368.26 1596.81,369.882 1596.81,370.704C1596.81,373.924 1580.2,371.934 1568.63,367.33L1568.63,367.319M949.547,363.495C972.981,342.607 994.17,330.058 1021.27,321.015C1041.85,314.144 1079.69,303.446 1096.73,299.665C1119.89,294.534 1116.69,297.706 1092.06,304.288C1072.07,309.637 1062.75,313.398 1034.08,327.662C1015.3,337.014 995.7,346.3 990.536,348.293C985.371,350.294 973.225,356.102 963.541,361.21C953.864,366.313 945.026,370.457 943.9,370.417C942.778,370.417 945.32,367.26 949.547,363.495M980.155,280.392C1020.28,244.488 1044.06,227.288 1066.66,217.823C1102.8,202.686 1134.18,198.459 1164.25,204.678C1194.24,210.881 1194.82,212.196 1168.15,213.489C1135.2,215.079 1090.3,222.945 1060.17,232.398C1036.44,239.845 1018.54,251.167 985.748,279.459C970.143,292.918 965.237,293.74 980.155,280.392M1525.59,264.634C1518.83,261.198 1507.29,256.91 1499.97,255.104C1492.65,253.301 1479.74,248.162 1471.29,243.683C1439.37,226.777 1421.29,218.733 1406.82,214.997C1398.6,212.879 1391.87,210.492 1391.87,209.693C1391.87,207.632 1392.9,207.757 1416.18,212.624C1440.63,217.735 1472.41,227.951 1487.37,235.502C1498.42,241.078 1542.16,269.07 1542.16,270.567C1542.16,272.361 1537.53,270.709 1525.59,264.634M621.635,1121.51C621.629,1118.61 615.668,1109.03 608.25,1099.98C604.896,1095.88 592.126,1084.4 579.872,1074.46C553.141,1052.77 535.32,1037.43 522.405,1025L512.83,1015.77L504.865,1031.19C500.485,1039.67 495.672,1047.84 494.172,1049.34C492.67,1050.84 491.726,1052.33 492.075,1052.65C492.415,1052.98 503.079,1060.1 515.761,1068.49C552.37,1092.75 575.042,1105.61 602.858,1117.89C616.558,1123.94 621.652,1124.92 621.635,1121.51M2017.94,1105.29C2017.16,1104.5 1994.73,1114.56 1994.73,1115.7C1994.73,1116.14 2000.1,1114.14 2006.65,1111.23C2013.22,1108.31 2018.29,1105.64 2017.94,1105.29M1802.91,1089.66C1832.36,1077.43 1845.18,1074.21 1871.77,1072.4C1907.05,1069.99 1932.86,1061.77 1965.84,1042.43C1972.97,1038.25 1979.32,1034.83 1979.94,1034.83C1983.76,1034.83 1979.38,1041.52 1967.83,1053.29C1951.08,1070.38 1937.85,1077.12 1905.6,1085.01C1892.7,1088.16 1879.68,1092.42 1876.57,1094.51C1871.52,1097.89 1871.37,1098.2 1875.19,1097.38C1877.53,1096.89 1890.98,1094.51 1905.07,1092.1C1951,1084.24 1998.16,1070.81 2047.23,1051.62L2073.26,1041.43L2064.14,1030.02C2044.75,1005.74 2032.74,984.869 2014.34,943.464C1991.93,893.03 1976.35,864.882 1959.23,843.934C1948.83,831.203 1954.41,834.418 1968.88,849.492C1987.18,868.552 1996.4,883.159 2006.89,909.697C2011.63,921.694 2020.37,941.499 2026.31,953.708C2032.25,965.923 2040.19,982.576 2043.96,990.717C2051.49,1007.02 2065.04,1027.96 2072.78,1035.26L2077.75,1039.95L2091.32,1033.21C2114.25,1021.81 2113.91,1023.4 2096.88,1007.07L2082.21,992.988L2047.96,924.454C2010.49,849.458 2004.6,839.404 1983.26,813.881C1974.55,803.458 1969.72,796.385 1971.01,795.954C1974.54,794.778 2018.49,841.175 2030.35,858.597C2044.64,879.588 2053.62,899.24 2067.74,940.399C2081.82,981.394 2085.51,988.163 2098.74,997.143C2104.22,1000.86 2110.82,1006.43 2113.42,1009.52L2118.14,1015.13L2123.92,1008.44C2130.64,1000.67 2137.37,987.185 2139.08,978.058C2140.71,969.344 2143.92,971.926 2142.88,981.119C2141.86,990.201 2133.42,1008.39 2127.13,1015.07C2122.68,1019.79 2122.59,1020.19 2125.51,1022.33C2127.21,1023.57 2129.13,1024.58 2129.78,1024.58C2131.53,1024.58 2148.81,1002.83 2156.05,991.511C2172.49,965.801 2170.8,950.519 2150.35,940.15C2139.64,934.716 2135.8,930.084 2135.8,922.615C2135.8,917.589 2137.01,915.406 2142.37,910.772C2152.38,902.117 2157.63,901.877 2174.36,909.286C2207.52,923.978 2211.91,923.854 2228.03,907.739C2233.91,901.851 2243.42,889.807 2249.14,880.968C2272.52,844.917 2301.36,780.106 2315.03,732.926L2319.35,718.047L2314.37,713.769C2311.62,711.417 2300.64,702.088 2289.97,693.04C2264.75,671.681 2265.13,672.117 2239.7,635.199C2227.72,617.825 2212.17,596.069 2205.13,586.857C2191.67,569.248 2164.28,540.283 2152.71,531.425C2141.39,522.76 2147.32,523.236 2160.71,532.066C2167.58,536.596 2181.7,548.833 2192.1,559.267C2207.2,574.41 2215.2,584.478 2231.86,609.27C2249.05,634.844 2256.4,644.003 2273.59,661.311C2285.07,672.863 2300.22,688.929 2307.26,697.014C2315.38,706.323 2320.5,710.96 2321.24,709.668C2322.42,707.61 2332.85,671.19 2332.87,669.061C2332.87,668.426 2325.39,662.754 2316.23,656.45C2287.99,637.01 2277.55,627.613 2259.03,604.962C2239.59,581.187 2223.28,563.828 2207.47,550.117C2201.9,545.281 2197.71,540.947 2198.17,540.493C2199.22,539.447 2220.14,553.317 2230.63,562.011C2234.97,565.614 2245.55,577.681 2254.12,588.827C2262.74,600.038 2274.09,612.553 2279.52,616.847C2284.91,621.111 2298.94,633.132 2310.68,643.558C2322.42,653.987 2332.49,662.522 2333.07,662.522C2334.21,662.522 2337.57,635.57 2339.19,613.437L2340.22,599.366L2331.85,595.783C2309.18,586.071 2294.39,577.721 2286.88,570.416C2271.47,555.395 2267.21,533.517 2272.06,494.237C2275.63,465.335 2275.51,451.766 2271.49,432.266C2256.75,360.87 2185.48,312.755 2106.53,320.899C2082.74,323.348 2056.49,330.08 2029.59,340.625C1991.09,355.725 1972.76,367.9 1968.84,380.976C1966.29,389.5 1967.28,392.352 1980.3,414.034C2000.23,447.219 2037.57,525.898 2033.4,525.898C2032.31,525.898 2027.85,519.942 2023.48,512.663C1999.11,472.031 1967.15,435.413 1947.72,425.871C1932.14,418.226 1924.83,418.972 1908.15,429.919C1892.58,440.147 1879.82,445.646 1859.84,450.748C1836.5,456.71 1827.37,463.317 1827.37,474.239C1827.37,492.48 1840.56,522.272 1857.24,541.698C1863.5,548.974 1867.86,554.933 1866.95,554.933C1864.75,554.933 1843.79,532.553 1824.87,509.995C1816.5,500.003 1809.37,492.092 1809.05,492.412C1807.81,493.651 1816.06,520.611 1821.9,534.436C1836.6,569.191 1853.21,590.743 1875.51,603.998C1885.49,609.934 1893.13,616.419 1903.68,627.908C1911.64,636.579 1925.52,649.602 1934.53,656.841C1943.54,664.089 1950.08,670.292 1949.06,670.629C1946.99,671.323 1917.32,656.847 1901.66,647.504C1866.83,626.72 1834.27,593.036 1811,553.694C1806.43,545.967 1802.2,540.201 1801.6,540.884C1799.11,543.728 1795.79,570.711 1795.88,587.378C1796.02,617.247 1803.78,653.148 1816.25,681.88C1823.69,699.018 1823.72,699.163 1818.59,693.266C1815.73,689.975 1809.24,680.017 1804.16,671.128C1799.08,662.241 1794.92,655.404 1794.92,655.943C1794.92,659.098 1811.39,702.901 1820.28,723.348C1833.17,753.024 1836.64,764.09 1840.93,789.182C1844.93,812.551 1847.49,853.801 1844.95,853.801C1844.01,853.801 1842.72,846.354 1842.08,837.147C1840.7,817.537 1835.5,790.611 1830.75,778.555C1828.89,773.85 1822.7,762.664 1817,753.698C1811.29,744.732 1803.57,729.578 1799.86,720.028C1786.88,686.721 1783.24,678.711 1782.31,681.31C1779.07,690.29 1767.59,734.4 1767.61,737.804C1767.61,740.081 1769.55,747.907 1771.88,755.203C1779.38,778.72 1780.28,789.755 1776.93,817.313C1775.02,832.946 1774.35,846.21 1775.05,854.169C1777.81,885.688 1778.15,901.502 1776.3,913.575C1774.43,925.781 1765.91,954.303 1762.53,959.638C1759.2,964.916 1759.33,959.978 1762.83,949.365C1765.74,940.513 1766.49,933.914 1766.6,915.857C1766.7,903.492 1766.12,892.763 1765.39,892.015C1763.54,890.161 1758.01,897.344 1744.24,919.502C1737.83,929.803 1728.44,943.605 1723.37,950.165C1709.46,968.173 1707.25,974.296 1708.31,991.973C1708.8,1000.05 1710.09,1009.61 1711.2,1013.22L1713.19,1019.78L1716.91,1014.74C1723.22,1006.21 1742.14,986.604 1743.13,987.596C1743.64,988.109 1737.45,996.449 1729.38,1006.13C1716.15,1021.96 1714.68,1024.43 1714.67,1030.77C1714.67,1037.71 1721.41,1067.24 1725.04,1076.09L1726.89,1080.63L1735.21,1077.18C1747.04,1072.26 1756.22,1063.73 1760.95,1053.26C1764.72,1044.91 1765.05,1041.96 1765.24,1014.34C1765.48,979.047 1765.53,978.471 1767.19,978.471C1767.9,978.471 1768.63,984.813 1768.81,992.563C1769,1000.31 1770.32,1013.95 1771.77,1022.88C1773.22,1031.8 1774.42,1044.69 1774.42,1051.51L1774.42,1063.93L1779.11,1062.81C1789.03,1060.44 1810.51,1051.99 1815.83,1048.36C1818.88,1046.27 1827.34,1038.74 1834.62,1031.62C1841.9,1024.51 1847.85,1019.63 1847.85,1020.8C1847.85,1023.48 1830.55,1050.37 1822.43,1060.31C1819.04,1064.46 1808.96,1073.2 1800.03,1079.75C1782.48,1092.61 1774.42,1099.55 1774.42,1101.8C1774.42,1102.58 1776.15,1102.14 1778.26,1100.76C1780.38,1099.41 1791.46,1094.41 1802.9,1089.66L1802.91,1089.66M2127.09,900.819C2124.27,897.602 2112.18,884.548 2100.24,871.815C2083.66,854.155 2074.19,842.091 2060.29,820.919C2040.8,791.229 2023.47,768.521 2011.52,757.023C2000.71,746.62 1974.59,727.489 1956.89,717.018C1948.41,711.998 1942.27,707.621 1943.25,707.295C1945.83,706.433 1971.38,717.82 1985.31,726.041C2013.6,742.734 2025.39,754.597 2048.66,789.758C2057.36,802.908 2068.61,818.422 2073.66,824.236C2078.71,830.049 2087.36,841.195 2092.86,848.999C2109.85,873.043 2125.7,893.699 2131.15,898.894C2134.02,901.619 2135.96,904.504 2135.47,905.298C2133.96,907.733 2132.42,906.905 2127.09,900.819M2179.96,859.275C2152.72,847.497 2147.47,843.576 2124.45,817.821C2098.42,788.683 2046.27,735.165 2030.98,721.874C2023.13,715.062 2007.74,703.074 1996.76,695.231C1978.39,682.112 1973.57,677.897 1976.95,677.897C1978.96,677.897 2016.37,697.986 2028.78,705.736C2067.69,730.02 2078.75,741.382 2119.75,799.149C2139.32,826.724 2144.17,831.566 2158.68,838.071C2168.75,842.584 2204.8,864.989 2204.8,866.735C2204.8,868.952 2196.73,866.537 2179.96,859.275M2074.14,1068.54C2091.52,1059.83 2105.87,1050.12 2117.37,1039.28L2126.44,1030.73L2122.58,1027.82C2118.86,1025.01 2118.49,1025.1 2111.81,1030.53C2108,1033.61 2094.51,1042.87 2081.83,1051.1C2061.95,1063.98 2042.44,1077.76 2036.57,1083.03C2033.46,1085.83 2060.26,1075.5 2074.14,1068.54M460.134,1050.02C457.384,1047.13 449.22,1039.4 441.995,1032.87L428.856,1020.98L423.638,1023.68C420.761,1025.16 418.453,1026.93 418.496,1027.62C418.64,1029.41 436.161,1043.53 444.212,1048.31C451.706,1052.76 463.238,1057.15 464.403,1056.01C464.791,1055.62 462.883,1052.92 460.134,1050.02M2339.42,559.485C2338.82,533.027 2338.5,530.578 2335.4,528.792C2329.57,525.438 2299.81,512.85 2294.68,511.577C2283.39,508.774 2280.12,521.912 2286.77,543.441C2292.67,562.53 2307,578.33 2329.73,590.805L2338.86,595.811L2339.46,592.021C2339.8,589.938 2339.8,575.294 2339.46,559.485L2339.42,559.485M2337.3,498.149C2335.91,466.532 2332.05,443.988 2323.45,417.249C2296.09,332.323 2225.64,269.938 2135.63,250.948C2113.77,246.336 2073.3,244.633 2050.25,247.348C2013.26,251.714 1993.07,257.615 1950.34,276.568C1922.3,289.001 1891.1,300.178 1867.5,306.244C1822.83,317.721 1767.36,316.559 1731.3,303.392C1724.96,301.079 1719.77,299.486 1719.77,299.86C1719.77,300.246 1723.23,307.412 1727.45,315.814C1731.67,324.224 1738.86,342.459 1743.42,356.343C1753.35,386.572 1756.98,394.036 1766.96,404.702C1777.62,416.103 1787.94,420.182 1806.09,420.182C1824.32,420.182 1839.41,416.5 1859.33,407.166C1872.81,400.853 1877.73,397.256 1893.56,382.153C1903.73,372.45 1918.87,359.98 1927.2,354.441C1961.06,331.951 2005.37,316.298 2059.25,307.794C2085.92,303.588 2140.16,303.664 2162.95,307.936C2222.23,319.065 2253.88,344.16 2270.89,393.534C2276.83,410.774 2281.63,445.901 2281.64,472.144C2281.64,490.099 2282.19,495.173 2284.48,498.436C2286.12,500.78 2296.01,506.56 2307.96,512.155C2330.93,522.918 2336.83,525.603 2337.83,525.773C2338.21,525.83 2337.97,513.405 2337.3,498.141L2337.3,498.149" style="fill-rule:nonzero;"/>
    </g>
</svg>
